<svg width="68" height="68" viewBox="0 0 68 68" fill="none" xmlns="http://www.w3.org/2000/svg">
<path d="M47.9252 14.9319H19.4554C18.2569 14.9334 17.1079 15.41 16.2603 16.2573C15.4127 17.1046 14.9356 18.2534 14.9336 19.4519V47.9235C14.9351 49.1221 15.412 50.2713 16.2598 51.1186C17.1075 51.966 18.2568 52.4425 19.4554 52.4435H47.9252C49.1239 52.4425 50.2732 51.966 51.1209 51.1186C51.9686 50.2713 52.4456 49.1221 52.4471 47.9235V19.4519C52.4451 18.2534 51.968 17.1046 51.1204 16.2573C50.2727 15.41 49.1237 14.9334 47.9252 14.9319ZM49.9593 47.9235C49.9564 48.4621 49.7411 48.9778 49.3603 49.3586C48.9795 49.7394 48.4638 49.9547 47.9252 49.9576H19.4554C18.9169 49.9547 18.4012 49.7394 18.0204 49.3586C17.6395 48.9778 17.4243 48.4621 17.4214 47.9235V19.4519C17.4243 18.9133 17.6395 18.3976 18.0204 18.0168C18.4012 17.636 18.9169 17.4207 19.4554 17.4178H47.9252C48.4638 17.4207 48.9795 17.636 49.3603 18.0168C49.7411 18.3976 49.9564 18.9133 49.9593 19.4519V47.9235Z" fill="#7E7E7E"/>
<path d="M34.4584 37.6508C34.5038 37.616 34.545 37.576 34.5812 37.5318C34.7656 37.3279 34.8682 37.063 34.8694 36.7881C34.8683 36.5265 34.7872 36.2715 34.6369 36.0573C34.4708 35.8157 34.2211 35.6442 33.936 35.5758L33.8858 35.5646L32.5843 31.5783C32.2868 30.6932 32.0227 29.8875 31.7922 29.1612C31.5443 28.4174 31.3088 27.7785 31.0857 27.2442C30.8924 26.7725 30.6393 26.3276 30.3326 25.9204C29.905 25.3849 29.4513 25.2715 29.1445 25.2715C28.7132 25.2715 28.3171 25.4927 27.9639 25.9278C27.6528 26.3404 27.3931 26.7894 27.1904 27.2647C26.9487 27.7989 26.7008 28.4305 26.4467 29.1593C26.1926 29.8882 25.9316 30.6722 25.6639 31.5113L22.7039 40.6908C22.6846 40.7837 22.6746 40.8784 22.6741 40.9734C22.6702 41.137 22.7045 41.2994 22.7742 41.4475C22.8439 41.5956 22.9471 41.7255 23.0757 41.8268C23.2892 41.99 23.5508 42.0776 23.8195 42.0759C24.1504 42.0759 24.632 41.9532 25.0466 41.3694C25.0873 41.3133 25.1176 41.2503 25.1359 41.1835L26.1473 37.8851H31.98L32.8501 41.3118C32.9481 41.5292 33.1083 41.7126 33.3105 41.839C33.5127 41.9655 33.7478 42.0291 33.9862 42.022C34.7299 42.022 35.2263 41.5776 35.2877 40.8655C35.295 40.7918 35.288 40.7173 35.2672 40.6461L34.4584 37.6508ZM29.5796 30.7713C29.7804 31.349 29.9856 31.9501 30.195 32.5749L30.8142 34.4509C30.9202 34.7726 31.0187 35.0849 31.1135 35.3806H26.997L29.0609 29.2727C29.217 29.7301 29.3862 30.2284 29.5796 30.775V30.7713Z" fill="#7E7E7E"/>
<path d="M41.6669 36.5707C41.6979 35.7303 41.7283 34.8409 41.758 33.9026L41.9068 28.8582C41.9154 28.4752 41.9229 28.1424 41.9291 27.8598L42.2303 27.8709C42.6784 27.8877 43.0707 27.91 43.4035 27.9342C44.0803 27.9676 44.6102 27.5753 44.705 26.7721C44.7094 26.4712 44.6056 26.1788 44.4124 25.9481C44.2192 25.7174 43.9496 25.5638 43.6527 25.5152C43.4667 25.4892 43.1878 25.4594 42.8011 25.4278C42.6542 25.4148 42.208 25.3776 38.5674 25.4706C37.2827 25.4371 36.0574 25.5264 35.838 26.4002C35.652 27.17 35.9123 27.5511 36.1708 27.7334C36.4472 27.9286 36.7877 28.011 37.1228 27.9639C37.3338 27.9382 37.5461 27.9246 37.7586 27.923L39.01 27.9044H39.458C39.458 28.016 39.458 28.1368 39.458 28.2763C39.458 28.7039 39.4457 29.1997 39.4209 29.7637L39.2349 35.0051C39.1717 36.5725 39.1308 37.729 39.1066 38.4672C39.0918 38.8985 39.0787 39.276 39.0639 39.5976C37.9619 39.579 37.2517 39.5697 36.9331 39.5697C36.6861 39.5701 36.4434 39.6342 36.2284 39.7557C35.996 39.884 35.719 40.1647 35.719 40.7448C35.7041 41.0702 35.8157 41.6633 36.7156 41.972C36.7756 41.992 36.8382 42.0033 36.9015 42.0054L43.4221 42.117C43.5744 42.125 43.7268 42.1027 43.8705 42.0513C44.0141 42 44.1461 41.9207 44.2589 41.818C44.3717 41.7152 44.4629 41.5911 44.5274 41.4529C44.5918 41.3146 44.6282 41.165 44.6344 41.0126C44.6549 40.8496 44.6417 40.6841 44.5957 40.5264C44.5496 40.3688 44.4717 40.2222 44.3666 40.0959C44.2346 39.9575 44.0751 39.8481 43.8984 39.7748C43.7216 39.7015 43.5316 39.6658 43.3403 39.6701L41.5182 39.6441C41.5405 39.4061 41.5591 39.1328 41.5739 38.8241C41.6056 38.1604 41.6372 37.4074 41.6669 36.5707Z" fill="#7E7E7E"/>
<path d="M66.089 29.613C66.4189 29.613 66.7352 29.4819 66.9685 29.2487C67.2018 29.0154 67.3328 28.699 67.3328 28.3691C67.3328 28.0392 67.2018 27.7228 66.9685 27.4896C66.7352 27.2563 66.4189 27.1252 66.089 27.1252H58.6201V18.9759H66.089C66.2523 18.9759 66.4141 18.9437 66.565 18.8812C66.7159 18.8187 66.853 18.727 66.9685 18.6115C67.084 18.496 67.1756 18.3589 67.2382 18.208C67.3007 18.0571 67.3328 17.8953 67.3328 17.732C67.3328 17.5686 67.3007 17.4069 67.2382 17.256C67.1756 17.1051 67.084 16.9679 66.9685 16.8524C66.853 16.7369 66.7159 16.6453 66.565 16.5828C66.4141 16.5203 66.2523 16.4881 66.089 16.4881H58.516C58.2858 14.5461 57.4086 12.738 56.0257 11.3552C54.6429 9.97234 52.8348 9.09516 50.8928 8.86493V1.29196C50.8928 0.962064 50.7618 0.645678 50.5285 0.412406C50.2952 0.179133 49.9788 0.0480815 49.6489 0.0480815C49.319 0.0480815 49.0026 0.179133 48.7694 0.412406C48.5361 0.645678 48.4051 0.962064 48.4051 1.29196V8.7571H40.252V1.29196C40.2584 1.12469 40.2311 0.957833 40.1715 0.801387C40.112 0.64494 40.0215 0.502123 39.9054 0.38149C39.7894 0.260857 39.6501 0.164891 39.4961 0.0993391C39.3421 0.0337874 39.1764 0 39.009 0C38.8416 0 38.6759 0.0337874 38.5219 0.0993391C38.3679 0.164891 38.2287 0.260857 38.1126 0.38149C37.9966 0.502123 37.9061 0.64494 37.8465 0.801387C37.787 0.957833 37.7596 1.12469 37.7661 1.29196V8.7571H29.6148V1.29196C29.6213 1.12469 29.594 0.957833 29.5344 0.801387C29.4749 0.64494 29.3843 0.502123 29.2683 0.38149C29.1522 0.260857 29.013 0.164891 28.859 0.0993391C28.705 0.0337874 28.5393 0 28.3719 0C28.2045 0 28.0388 0.0337874 27.8848 0.0993391C27.7308 0.164891 27.5916 0.260857 27.4755 0.38149C27.3594 0.502123 27.2689 0.64494 27.2094 0.801387C27.1498 0.957833 27.1225 1.12469 27.1289 1.29196V8.7571H18.9777V1.29196C18.9777 1.12861 18.9456 0.966862 18.883 0.815948C18.8205 0.665034 18.7289 0.52791 18.6134 0.412406C18.4979 0.296901 18.3608 0.205277 18.2099 0.142766C18.0589 0.0802555 17.8972 0.0480815 17.7338 0.0480815C17.5705 0.0480815 17.4088 0.0802555 17.2578 0.142766C17.1069 0.205277 16.9698 0.296901 16.8543 0.412406C16.7388 0.52791 16.6472 0.665034 16.5847 0.815948C16.5221 0.966862 16.49 1.12861 16.49 1.29196V8.86122C14.5479 9.09145 12.7399 9.96862 11.357 11.3515C9.9742 12.7343 9.09702 14.5423 8.86679 16.4844H1.29196C0.962064 16.4844 0.645678 16.6154 0.412406 16.8487C0.179133 17.082 0.0480815 17.3984 0.0480815 17.7283C0.0480815 18.0582 0.179133 18.3746 0.412406 18.6078C0.645678 18.8411 0.962064 18.9722 1.29196 18.9722H8.76081V27.1252H1.29196C0.962064 27.1252 0.645678 27.2563 0.412406 27.4896C0.179133 27.7228 0.0480815 28.0392 0.0480815 28.3691C0.0480815 28.699 0.179133 29.0154 0.412406 29.2487C0.645678 29.4819 0.962064 29.613 1.29196 29.613H8.76081V37.7623H1.29196C0.962064 37.7623 0.645678 37.8934 0.412406 38.1267C0.179133 38.3599 0.0480815 38.6763 0.0480815 39.0062C0.0480815 39.3361 0.179133 39.6525 0.412406 39.8858C0.645678 40.1191 0.962064 40.2501 1.29196 40.2501H8.76081V48.4013H1.29196C1.12469 48.3949 0.957833 48.4222 0.801387 48.4818C0.64494 48.5413 0.502124 48.6318 0.381491 48.7479C0.260858 48.8639 0.164891 49.0032 0.0993391 49.1572C0.0337874 49.3112 0 49.4769 0 49.6443C0 49.8117 0.0337874 49.9773 0.0993391 50.1314C0.164891 50.2854 0.260858 50.4246 0.381491 50.5407C0.502124 50.6567 0.64494 50.7472 0.801387 50.8068C0.957833 50.8663 1.12469 50.8937 1.29196 50.8872H8.86494C9.09485 52.8294 9.97192 54.6376 11.3548 56.0205C12.7377 57.4034 14.5459 58.2805 16.4881 58.5104V66.0815C16.4881 66.4114 16.6192 66.7278 16.8524 66.9611C17.0857 67.1943 17.4021 67.3254 17.732 67.3254C18.0619 67.3254 18.3783 67.1943 18.6115 66.9611C18.8448 66.7278 18.9759 66.4114 18.9759 66.0815V58.6182H27.1271V66.0852C27.1206 66.2525 27.148 66.4194 27.2075 66.5758C27.2671 66.7323 27.3576 66.8751 27.4736 66.9957C27.5897 67.1163 27.7289 67.2123 27.8829 67.2779C28.037 67.3434 28.2026 67.3772 28.37 67.3772C28.5374 67.3772 28.7031 67.3434 28.8571 67.2779C29.0112 67.2123 29.1504 67.1163 29.2664 66.9957C29.3825 66.8751 29.473 66.7323 29.5326 66.5758C29.5921 66.4194 29.6195 66.2525 29.613 66.0852V58.6182H37.7642V66.0852C37.7577 66.2525 37.7851 66.4194 37.8446 66.5758C37.9042 66.7323 37.9947 66.8751 38.1108 66.9957C38.2268 67.1163 38.366 67.2123 38.5201 67.2779C38.6741 67.3434 38.8398 67.3772 39.0072 67.3772C39.1746 67.3772 39.3402 67.3434 39.4943 67.2779C39.6483 67.2123 39.7875 67.1163 39.9036 66.9957C40.0196 66.8751 40.1101 66.7323 40.1697 66.5758C40.2292 66.4194 40.2566 66.2525 40.2501 66.0852V58.6182H48.4013V66.0852C48.4013 66.2486 48.4335 66.4103 48.496 66.5612C48.5585 66.7122 48.6502 66.8493 48.7657 66.9648C48.8812 67.0803 49.0183 67.1719 49.1692 67.2344C49.3201 67.2969 49.4819 67.3291 49.6452 67.3291C49.8086 67.3291 49.9703 67.2969 50.1212 67.2344C50.2721 67.1719 50.4093 67.0803 50.5248 66.9648C50.6403 66.8493 50.7319 66.7122 50.7944 66.5612C50.8569 66.4103 50.8891 66.2486 50.8891 66.0852V58.5141C52.8313 58.2842 54.6395 57.4071 56.0224 56.0242C57.4053 54.6413 58.2824 52.8331 58.5123 50.8909H66.0852C66.2525 50.8974 66.4194 50.8701 66.5758 50.8105C66.7323 50.751 66.8751 50.6604 66.9957 50.5444C67.1163 50.4283 67.2123 50.2891 67.2779 50.1351C67.3434 49.9811 67.3772 49.8154 67.3772 49.648C67.3772 49.4806 67.3434 49.3149 67.2779 49.1609C67.2123 49.0069 67.1163 48.8677 66.9957 48.7516C66.8751 48.6355 66.7323 48.545 66.5758 48.4855C66.4194 48.4259 66.2525 48.3986 66.0852 48.405H58.6201V40.2501H66.089C66.4189 40.2501 66.7352 40.1191 66.9685 39.8858C67.2018 39.6525 67.3328 39.3361 67.3328 39.0062C67.3328 38.6763 67.2018 38.3599 66.9685 38.1267C66.7352 37.8934 66.4189 37.7623 66.089 37.7623H58.6201V29.613H66.089ZM56.1342 49.8646C56.1317 51.526 55.4705 53.1186 54.2956 54.2932C53.1206 55.4678 51.5278 56.1285 49.8665 56.1305H17.5145C15.8531 56.1285 14.2603 55.4678 13.0853 54.2932C11.9104 53.1186 11.2492 51.526 11.2467 49.8646V17.5126C11.2492 15.851 11.9103 14.2582 13.0852 13.0833C14.2601 11.9085 15.8529 11.2473 17.5145 11.2449H49.8665C51.528 11.2473 53.1208 11.9085 54.2957 13.0833C55.4706 14.2582 56.1317 15.851 56.1342 17.5126V49.8646Z" fill="#7E7E7E"/>
</svg>
