<svg width="51" height="88" viewBox="0 0 51 88" fill="none" xmlns="http://www.w3.org/2000/svg">
<path d="M45.7427 86.5776L50.1234 82.1966C50.7084 81.6128 51 80.9404 51 80.1801C51 79.4217 50.7084 78.7495 50.1234 78.1658L15.6857 43.7262L50.1225 9.28812C50.7075 8.70405 50.9991 8.03188 50.9991 7.27256C50.9991 6.51292 50.7075 5.84076 50.1225 5.25699L45.7415 0.876574C45.1577 0.291577 44.4855 -2.84756e-07 43.7259 -3.17961e-07C42.9669 -3.51139e-07 42.2947 0.292498 41.711 0.876573L0.875992 41.7106C0.291916 42.2944 3.06081e-05 42.9669 3.0575e-05 43.7262C3.05418e-05 44.4855 0.291916 45.1568 0.875992 45.7402L41.711 86.5776C42.295 87.1614 42.9672 87.4514 43.7259 87.4514C44.4855 87.4514 45.1577 87.1614 45.7427 86.5776Z" fill="#767676"/>
</svg>
