<svg width="32" height="32" viewBox="0 0 32 32" fill="none" xmlns="http://www.w3.org/2000/svg">
<g clip-path="url(#clip0_145_27)">
<path fill-rule="evenodd" clip-rule="evenodd" d="M0 16C0 7.16347 7.16347 0 16 0C24.8365 0 32 7.16347 32 16C32 24.8365 24.8365 32 16 32C7.16347 32 0 24.8365 0 16ZM16.0008 7.46667C13.6833 7.46667 13.3924 7.4768 12.4822 7.5182C11.5737 7.5598 10.9537 7.70367 10.4111 7.91467C9.8498 8.1326 9.37373 8.4242 8.8994 8.89867C8.42473 9.373 8.13313 9.84907 7.91447 10.4101C7.70293 10.9529 7.55893 11.5732 7.51807 12.4813C7.47733 13.3915 7.46667 13.6825 7.46667 16.0001C7.46667 18.3176 7.477 18.6076 7.5182 19.5178C7.56 20.4263 7.7038 21.0463 7.91467 21.5889C8.1328 22.1502 8.42433 22.6263 8.89887 23.1006C9.373 23.5753 9.84907 23.8675 10.41 24.0855C10.9529 24.2965 11.5732 24.4403 12.4815 24.4819C13.3917 24.5234 13.6824 24.5335 15.9997 24.5335C18.3175 24.5335 18.6074 24.5234 19.5177 24.4819C20.4261 24.4403 21.0469 24.2965 21.5899 24.0855C22.1509 23.8675 22.6263 23.5753 23.1004 23.1006C23.5751 22.6263 23.8667 22.1502 24.0853 21.5891C24.2951 21.0463 24.4391 20.4261 24.4818 19.518C24.5227 18.6077 24.5333 18.3176 24.5333 16.0001C24.5333 13.6825 24.5227 13.3917 24.4818 12.4815C24.4391 11.573 24.2951 10.9529 24.0853 10.4103C23.8667 9.84907 23.5751 9.373 23.1004 8.89867C22.6257 8.424 22.1511 8.13247 21.5893 7.91467C21.0453 7.70367 20.4249 7.5598 19.5164 7.5182C18.6061 7.4768 18.3164 7.46667 15.9981 7.46667H16.0008Z" fill="#444444"/>
<path fill-rule="evenodd" clip-rule="evenodd" d="M15.2349 9.00457C15.4621 9.00424 15.7157 9.00457 16.0005 9.00457C18.2789 9.00457 18.549 9.01277 19.4487 9.05364C20.2807 9.09171 20.7323 9.23071 21.0331 9.34751C21.4313 9.50217 21.7152 9.68704 22.0137 9.98571C22.3123 10.2844 22.4973 10.5688 22.6523 10.9671C22.7691 11.2675 22.9083 11.7191 22.9461 12.5511C22.987 13.4506 22.9959 13.7209 22.9959 15.9982C22.9959 18.2756 22.987 18.5458 22.9461 19.4454C22.9081 20.2774 22.7691 20.729 22.6523 21.0294C22.4976 21.4276 22.3123 21.7112 22.0137 22.0097C21.715 22.3084 21.4315 22.4932 21.0331 22.6479C20.7326 22.7652 20.2807 22.9039 19.4487 22.942C18.5491 22.9828 18.2789 22.9917 16.0005 22.9917C13.7219 22.9917 13.4518 22.9828 12.5523 22.942C11.7203 22.9036 11.2687 22.7645 10.9677 22.6477C10.5695 22.493 10.285 22.3082 9.98635 22.0095C9.68768 21.7108 9.50282 21.4271 9.34782 21.0287C9.23102 20.7282 9.09182 20.2767 9.05395 19.4447C9.01302 18.5451 9.00488 18.2749 9.00488 15.9961C9.00488 13.7173 9.01302 13.4485 9.05395 12.549C9.09195 11.717 9.23102 11.2654 9.34782 10.9646C9.50248 10.5664 9.68768 10.2819 9.98635 9.98324C10.285 9.68457 10.5695 9.49971 10.9677 9.34464C11.2685 9.22731 11.7203 9.08864 12.5523 9.05044C13.3395 9.01491 13.6445 9.00424 15.2349 9.00244V9.00457ZM20.5555 10.4214C19.9902 10.4214 19.5315 10.8796 19.5315 11.4451C19.5315 12.0104 19.9902 12.4691 20.5555 12.4691C21.1209 12.4691 21.5795 12.0104 21.5795 11.4451C21.5795 10.8798 21.1209 10.4214 20.5555 10.4214ZM16.0005 11.6179C13.5803 11.6179 11.6182 13.5801 11.6182 16.0002C11.6182 18.4203 13.5803 20.3816 16.0005 20.3816C18.4206 20.3816 20.382 18.4203 20.382 16.0002C20.382 13.5801 18.4206 11.6179 16.0005 11.6179Z" fill="#444444"/>
<path fill-rule="evenodd" clip-rule="evenodd" d="M16.0007 13.1558C17.5716 13.1558 18.8452 14.4292 18.8452 16.0002C18.8452 17.5711 17.5716 18.8447 16.0007 18.8447C14.4296 18.8447 13.1562 17.5711 13.1562 16.0002C13.1562 14.4292 14.4296 13.1558 16.0007 13.1558Z" fill="#444444"/>
</g>
<defs>
<clipPath id="clip0_145_27">
<rect width="32" height="32" fill="white"/>
</clipPath>
</defs>
</svg>
