<svg width="67" height="67" viewBox="0 0 67 67" fill="none" xmlns="http://www.w3.org/2000/svg">
<path d="M64.6195 7.08426L50.8367 0.418766C49.2329 -0.359962 47.3256 -0.0316333 46.0714 1.22907L19.6721 25.4433L8.16724 16.6731C7.09945 15.8502 5.59409 15.9176 4.60168 16.8268L0.91678 20.2027C-0.303843 21.3097 -0.303843 23.2397 0.906311 24.3468L10.8848 33.5L0.906311 42.6532C-0.303843 43.7603 -0.303843 45.6903 0.91678 46.7973L4.60168 50.1732C5.60456 51.0824 7.09945 51.1498 8.16724 50.3269L19.6721 41.5462L46.084 65.7709C47.3277 67.0316 49.235 67.36 50.8388 66.5812L64.6341 59.9052C66.0851 59.2044 67 57.7353 67 56.1126V10.8727C67 9.26049 66.0725 7.78091 64.6237 7.08005L64.6195 7.08426ZM50.2567 48.7947L30.2138 33.5021L50.2567 18.2096V48.7947Z" fill="#7E7E7E"/>
</svg>
