<svg width="17" height="17" viewBox="0 0 17 17" fill="none" xmlns="http://www.w3.org/2000/svg">
<path d="M13.7308 17H3.26925C2.40219 17 1.57066 16.6683 0.957558 16.0779C0.34446 15.4875 2.48651e-05 14.6867 2.48651e-05 13.8518C-0.000655483 13.7767 0.0126308 13.702 0.0392555 13.6314C0.667598 12.0353 1.78393 10.6602 3.24082 9.68779C4.69771 8.71539 6.42662 8.19142 8.19923 8.18506H8.80077C10.5734 8.19142 12.3023 8.71539 13.7592 9.68779C15.2161 10.6602 16.3324 12.0353 16.9607 13.6314C16.9874 13.702 17.0007 13.7767 17 13.8518C17 14.6867 16.6555 15.4875 16.0424 16.0779C15.4293 16.6683 14.5978 17 13.7308 17ZM1.30771 13.9588C1.33613 14.441 1.55527 14.8944 1.9201 15.2258C2.28492 15.5572 2.76771 15.7415 3.26925 15.7407H13.7308C14.2323 15.7415 14.7151 15.5572 15.0799 15.2258C15.4447 14.8944 15.6639 14.441 15.6923 13.9588C15.142 12.6304 14.1918 11.4907 12.9638 10.6862C11.7358 9.88177 10.286 9.44928 8.80077 9.44433H8.19923C6.714 9.44928 5.26424 9.88177 4.03621 10.6862C2.80818 11.4907 1.85799 12.6304 1.30771 13.9588Z" fill="#A8A8A8"/>
<path d="M8.50022 7.55563C7.72431 7.55563 6.96582 7.33407 6.32068 6.91896C5.67553 6.50384 5.1727 5.91383 4.87578 5.22352C4.57885 4.53322 4.50116 3.77363 4.65253 3.0408C4.8039 2.30798 5.17754 1.63484 5.72619 1.1065C6.27484 0.578161 6.97386 0.218359 7.73486 0.0725914C8.49586 -0.0731765 9.28466 0.00163687 10.0015 0.287571C10.7184 0.573505 11.3311 1.05772 11.7621 1.67898C12.1932 2.30023 12.4233 3.03064 12.4233 3.77782C12.4233 4.77976 12.01 5.74066 11.2742 6.44914C10.5385 7.15761 9.54068 7.55563 8.50022 7.55563ZM8.50022 1.25927C7.98294 1.25927 7.47729 1.40698 7.04719 1.68372C6.61709 1.96047 6.28187 2.35381 6.08392 2.81401C5.88597 3.27422 5.83418 3.78061 5.93509 4.26916C6.03601 4.75771 6.2851 5.20647 6.65086 5.5587C7.01663 5.91092 7.48265 6.15079 7.98998 6.24797C8.49731 6.34515 9.02318 6.29527 9.50108 6.10465C9.97897 5.91403 10.3874 5.59122 10.6748 5.17704C10.9622 4.76287 11.1156 4.27594 11.1156 3.77782C11.1156 3.10986 10.84 2.46926 10.3496 1.99694C9.85909 1.52462 9.19386 1.25927 8.50022 1.25927Z" fill="#A8A8A8"/>
<path d="M13.7308 17H3.26925C2.40219 17 1.57066 16.6683 0.957558 16.0779C0.34446 15.4875 2.48651e-05 14.6867 2.48651e-05 13.8518C-0.000655483 13.7767 0.0126308 13.702 0.0392555 13.6314C0.667598 12.0353 1.78393 10.6602 3.24082 9.68779C4.69771 8.71539 6.42662 8.19142 8.19923 8.18506H8.80077C10.5734 8.19142 12.3023 8.71539 13.7592 9.68779C15.2161 10.6602 16.3324 12.0353 16.9607 13.6314C16.9874 13.702 17.0007 13.7767 17 13.8518C17 14.6867 16.6555 15.4875 16.0424 16.0779C15.4293 16.6683 14.5978 17 13.7308 17ZM1.30771 13.9588C1.33613 14.441 1.55527 14.8944 1.9201 15.2258C2.28492 15.5572 2.76771 15.7415 3.26925 15.7407H13.7308C14.2323 15.7415 14.7151 15.5572 15.0799 15.2258C15.4447 14.8944 15.6639 14.441 15.6923 13.9588C15.142 12.6304 14.1918 11.4907 12.9638 10.6862C11.7358 9.88177 10.286 9.44928 8.80077 9.44433H8.19923C6.714 9.44928 5.26424 9.88177 4.03621 10.6862C2.80818 11.4907 1.85799 12.6304 1.30771 13.9588Z" fill="#A8A8A8"/>
</svg>
