<svg width="46" height="68" viewBox="0 0 46 68" fill="none" xmlns="http://www.w3.org/2000/svg">
<path d="M40.1069 23.2963C42.407 21.856 44.1807 19.6951 45.1587 17.1414C46.1367 14.5877 46.2657 11.7806 45.5262 9.14588C44.7866 6.51119 43.2188 4.19272 41.0607 2.54218C38.9025 0.891643 36.2718 -0.000883936 33.5675 6.56912e-07H12.4324C9.72818 -0.000883936 7.09743 0.891643 4.93929 2.54218C2.78114 4.19272 1.21337 6.51119 0.473811 9.14588C-0.265749 11.7806 -0.136739 14.5877 0.84127 17.1414C1.81928 19.6951 3.59291 21.856 5.89311 23.2963C4.09144 24.4237 2.60425 25.9989 1.57282 27.8723C0.541386 29.7457 -3.05191e-05 31.8551 1.29028e-09 34.0002C3.05217e-05 36.1452 0.541507 38.2546 1.57299 40.128C2.60448 42.0014 4.09171 43.5765 5.89341 44.7038C4.05168 45.8583 2.53975 47.4802 1.50742 49.4088C0.475101 51.3375 -0.0417754 53.5058 0.00800905 55.6991C0.0577935 57.8923 0.672512 60.0343 1.79125 61.9129C2.90999 63.7914 4.49392 65.3412 6.38609 66.4088C8.27826 67.4763 10.413 68.0246 12.5788 67.9992C14.7445 67.9737 16.8661 67.3756 18.7334 66.2639C20.6006 65.1522 22.1487 63.5657 23.2242 61.6614C24.2997 59.7571 24.8652 57.6013 24.8648 55.4074V42.9816C26.1121 44.2228 27.604 45.1834 29.2428 45.8006C30.8817 46.4178 32.6307 46.6778 34.3756 46.5634C36.1204 46.4491 37.8218 45.9631 39.3686 45.1372C40.9153 44.3113 42.2725 43.1641 43.3516 41.7705C44.4306 40.3769 45.2071 38.7684 45.6304 37.05C46.0537 35.3316 46.1142 33.5421 45.8079 31.7985C45.5017 30.0548 44.8356 28.3962 43.8532 26.9312C42.8708 25.4661 41.5942 24.2275 40.1069 23.2963ZM42.2702 12.5927C42.2676 14.9287 41.3507 17.1683 39.7205 18.8206C38.0903 20.473 35.8798 21.4032 33.5736 21.4074L33.5675 21.4073L33.5556 21.4076L24.8648 21.4073V3.77781H33.5675C35.8748 3.78043 38.0869 4.70998 39.7184 6.36253C41.3499 8.01508 42.2676 10.2557 42.2702 12.5927ZM3.72973 12.5927C3.73231 10.2557 4.65003 8.01508 6.28155 6.36253C7.91306 4.70998 10.1251 3.78043 12.4324 3.77781H21.1351V21.4073H12.4324L12.4265 21.4074C10.1203 21.4033 7.90973 20.473 6.2795 18.8207C4.64927 17.1683 3.73234 14.9287 3.72973 12.5927ZM3.72973 34C3.73233 31.664 4.64925 29.4244 6.27949 27.772C7.90972 26.1197 10.1203 25.1894 12.4265 25.1853L12.4324 25.1854L21.1351 25.1852V42.8146L12.4324 42.8149C10.1251 42.8123 7.91306 41.8827 6.28155 40.2302C4.65003 38.5776 3.73231 36.337 3.72973 34ZM12.4324 64.2222C11.289 64.2232 10.1565 63.9959 9.09985 63.5533C8.04316 63.1108 7.08293 62.4617 6.27404 61.643C5.46516 60.8244 4.82347 59.8524 4.38567 58.7824C3.94787 57.7125 3.72253 56.5656 3.72253 55.4074C3.72253 54.2492 3.94787 53.1024 4.38567 52.0325C4.82347 50.9625 5.46516 49.9905 6.27404 49.1718C7.08293 48.3532 8.04316 47.7041 9.09985 47.2616C10.1565 46.819 11.289 46.5917 12.4324 46.5927L21.1351 46.5925V55.4074C21.1325 57.7445 20.2148 59.985 18.5833 61.6375C16.9517 63.29 14.7397 64.2196 12.4324 64.2222ZM33.5675 42.8149C31.261 42.8142 29.049 41.8861 27.4177 40.2344C25.7863 38.5827 24.8691 36.3425 24.8675 34.0062C24.8659 31.6699 25.7801 29.4285 27.4092 27.7745C29.0383 26.1206 31.249 25.1893 33.5556 25.1854H33.5675L33.5734 25.1853C35.88 25.1883 38.0911 26.1188 39.7208 27.7722C41.3504 29.4256 42.2654 31.6667 42.2646 34.0031C42.2638 36.3394 41.3474 38.5799 39.7166 40.2322C38.0858 41.8844 35.8741 42.8134 33.5675 42.8149Z" fill="#7E7E7E"/>
</svg>
