<svg width="17" height="17" viewBox="0 0 17 17" fill="none" xmlns="http://www.w3.org/2000/svg">
<path d="M8.13096 2.11825C8.35771 1.97968 8.64294 1.97968 8.86969 2.11825L13.828 5.14834C14.0386 5.27701 14.167 5.50599 14.167 5.75275V13.4582C14.167 13.8494 13.8499 14.1666 13.4587 14.1666H11.3337V9.91657C11.3337 8.74296 10.3823 7.79157 9.20866 7.79157H7.79199C6.61839 7.79157 5.66699 8.74296 5.66699 9.91657V14.1666H3.54199C3.15079 14.1666 2.83366 13.8494 2.83366 13.4582V5.75275C2.83366 5.50599 2.96208 5.27701 3.17263 5.14834L8.13096 2.11825ZM7.08366 14.1666V9.91657C7.08366 9.52537 7.40079 9.20823 7.79199 9.20823H9.20866C9.59986 9.20823 9.91699 9.52537 9.91699 9.91657V14.1666H7.08366ZM10.6253 15.5832H13.4587C14.6323 15.5832 15.5837 14.6318 15.5837 13.4582V5.75275C15.5837 5.01247 15.1984 4.32554 14.5667 3.93953L9.60841 0.909432C8.92817 0.493731 8.07248 0.493731 7.39224 0.909432L2.43391 3.93953C1.80224 4.32554 1.41699 5.01247 1.41699 5.75275V13.4582C1.41699 14.6318 2.36839 15.5832 3.54199 15.5832H6.37533H10.6253Z" fill="#A8A8A8"/>
</svg>
