<svg width="22" height="28" viewBox="0 0 22 28" fill="none" xmlns="http://www.w3.org/2000/svg">
<path d="M15.1393 24.6151C17.3206 25.644 19.6602 25.9354 21.8761 25.5919C18.0442 28.1904 12.9769 28.7548 8.48425 26.6356C1.718 23.4439 -1.17811 15.372 2.01361 8.60575C5.20533 1.83951 13.2772 -1.0566 20.0418 2.13434C20.2759 2.24478 20.5053 2.36103 20.7282 2.48232C16.1479 2.23651 11.6597 4.73095 9.58168 9.13626C6.84424 14.9437 9.33099 21.8752 15.1393 24.6151Z" fill="white"/>
<path d="M15.1393 24.6151C17.3206 25.644 19.6602 25.9354 21.8761 25.5919C18.0442 28.1904 12.9769 28.7548 8.48425 26.6356C1.718 23.4439 -1.17811 15.372 2.01361 8.60575C5.20533 1.83951 13.2772 -1.0566 20.0418 2.13434C20.2759 2.24478 20.5053 2.36103 20.7282 2.48232C16.1479 2.23651 11.6597 4.73095 9.58168 9.13626C6.84424 14.9437 9.33099 21.8752 15.1393 24.6151Z" stroke="black"/>
</svg>
