<svg width="25" height="34" viewBox="0 0 25 34" fill="none" xmlns="http://www.w3.org/2000/svg">
<path d="M12.5 32.5185C12.184 32.1658 11.778 31.7046 11.3079 31.1532C10.1493 29.7942 8.60653 27.8925 7.06588 25.7186C5.5231 23.5418 3.99599 21.1109 2.85794 18.6926C1.71324 16.2601 1 13.9188 1 11.9C1 5.92757 6.10358 1 12.5 1C18.8964 1 24 5.92757 24 11.9C24 13.9188 23.2868 16.2601 22.1421 18.6926C21.004 21.1109 19.4769 23.5418 17.9341 25.7186C16.3935 27.8925 14.8507 29.7942 13.6921 31.1532C13.222 31.7046 12.816 32.1658 12.5 32.5185ZM7.03572 11.9C7.03572 14.8441 9.53035 17.15 12.5 17.15C15.4696 17.15 17.9643 14.8441 17.9643 11.9C17.9643 8.95593 15.4696 6.65 12.5 6.65C9.53035 6.65 7.03572 8.95593 7.03572 11.9Z" stroke="#F5B48F" stroke-width="2"/>
</svg>
